<svg width="51" height="43" viewBox="0 0 51 43" fill="none" xmlns="http://www.w3.org/2000/svg">
<path fill-rule="evenodd" clip-rule="evenodd" d="M27.3214 0C9.10714 0 0 10.8 0 18.45C0 26.1 10.0179 36 27.3214 36C44.625 36 51 26.55 51 18.45C51 10.35 45.5357 0 27.3214 0ZM10.2784 12.3636V24H17.3068V22.4886H12.0341V12.3636H10.2784ZM21.0653 24V12.3636H19.3097V24H21.0653ZM33.0142 24V12.3636H31.2756V20.9091H31.1676L25.2472 12.3636H23.6222V24H25.3778V15.4659H25.4858L31.4006 24H33.0142ZM35.5753 12.3636V24H42.9389V22.4886H37.331V18.9261H42.4901V17.4205H37.331V13.875H42.8707V12.3636H35.5753Z" fill="white"/>
<path d="M5 43C8.78788 42.546 16.3636 39.2769 16.3636 29.8331C19.2424 27.2602 25 24.1123 25 32.1032C25 40.0942 11.6667 42.6973 5 43Z" fill="white"/>
</svg>
